<?xml version="1.0" encoding="iso-8859-1"?>
<!-- Generator: Adobe Illustrator 19.0.0, SVG Export Plug-In . SVG Version: 6.00 Build 0)  -->
<svg version="1.1" id="Layer_1" xmlns="http://www.w3.org/2000/svg" xmlns:xlink="http://www.w3.org/1999/xlink" x="0px" y="0px"
	 viewBox="0 0 485 485" style="enable-background:new 0 0 485 485;" xml:space="preserve">
<g>
	<path d="M462.521,104.028c-7.017-7.016-15.37-12.602-24.477-16.408c-3.806-9.106-9.393-17.461-16.407-24.476
		c-7.016-7.016-15.37-12.602-24.477-16.408c-3.805-9.105-9.391-17.459-16.407-24.476C366.398,7.906,347.312,0,327.01,0
		c-20.301,0-39.388,7.906-53.756,22.274L12.615,283.561c-16.51,16.551-16.477,43.448,0.074,59.959l129.454,129.133
		c7.981,7.962,18.615,12.347,29.941,12.348c11.366,0,22.027-4.412,30.019-12.422L462.52,211.513
		C492.154,181.88,492.154,133.662,462.521,104.028z M359.539,43.474c5.457,5.457,9.337,11.944,11.533,19.281l2.319,7.749l7.749,2.32
		c7.339,2.197,13.826,6.077,19.282,11.534c5.456,5.455,9.336,11.943,11.533,19.282l2.32,7.748l7.748,2.32
		c7.339,2.197,13.826,6.077,19.282,11.533c15.064,15.065,17.471,38.062,7.223,55.675c-35.28-20.096-75.646-29.875-116.342-28.239
		c1.515-40.681-8.419-81.161-28.547-116.314C310.645,32.217,318.656,30,327.01,30C339.299,30,350.851,34.785,359.539,43.474z
		 M280.834,57.155c37.695,71.607,24.975,161.31-33.199,219.628c-35.993,36.083-84.292,54.955-133.035,54.953
		c-28.73-0.001-57.613-6.578-84.214-20.034c0.371-2.545,1.518-4.997,3.47-6.954L280.834,57.155z M131.844,420.004l-63.43-63.273
		c15.364,3.351,31.097,5.076,46.863,5.076c3.615,0,7.232-0.091,10.847-0.272C125.493,381.327,127.423,400.947,131.844,420.004z
		 M180.864,451.391c-1.463,1.466-3.242,2.515-5.192,3.092c-14.581-30.067-21.204-63.099-19.37-96.594
		c42.776-8.198,81.481-28.752,112.573-59.92c31.312-31.39,52.256-71.729,60.056-115.084c34.372-2.198,68.62,5.071,98.909,20.914
		L180.864,451.391z"/>
</g>
<g>
</g>
<g>
</g>
<g>
</g>
<g>
</g>
<g>
</g>
<g>
</g>
<g>
</g>
<g>
</g>
<g>
</g>
<g>
</g>
<g>
</g>
<g>
</g>
<g>
</g>
<g>
</g>
<g>
</g>
</svg>
